HIERARCHY
ROOT Hips
{
	OFFSET -3.958830 18.904000 13.208200
	CHANNELS 6 Xposition Yposition Zposition Zrotation Yrotation Xrotation 
	JOINT LHipJoint
	{
		OFFSET 0.000000 0.000000 0.000000
		CHANNELS 3 Zrotation Yrotation Xrotation
		JOINT LeftUpLeg
		{
			OFFSET 1.800000 -1.400000 0.085000
			CHANNELS 3 Zrotation Yrotation Xrotation
			JOINT LeftLeg
			{
				OFFSET 2.215000 -6.000000 0.000000
				CHANNELS 3 Zrotation Yrotation Xrotation
				JOINT LeftFoot
				{
					OFFSET 2.500000 -6.900000 0.000000
					CHANNELS 3 Zrotation Yrotation Xrotation
					JOINT LeftToeBase
					{
						OFFSET 0.200000 -0.500000 1.950000
						CHANNELS 3 Zrotation Yrotation Xrotation
						End Site
						{
							OFFSET 0.000000 0.000000 0.000000
						}
					}
				}
			}
		}
	}
	JOINT RHipJoint
	{
		OFFSET 0.000000 0.000000 0.000000
		CHANNELS 3 Zrotation Yrotation Xrotation
		JOINT RightUpLeg
		{
			OFFSET -1.800000 -1.400000 0.085000
			CHANNELS 3 Zrotation Yrotation Xrotation
			JOINT RightLeg
			{
				OFFSET -2.215000 -6.000000 0.000000
				CHANNELS 3 Zrotation Yrotation Xrotation
				JOINT RightFoot
				{
					OFFSET -2.500000 -6.900000 0.000000
					CHANNELS 3 Zrotation Yrotation Xrotation
					JOINT RightToeBase
					{
						OFFSET -0.200000 -0.500000 1.950000
						CHANNELS 3 Zrotation Yrotation Xrotation
						End Site
						{
							OFFSET 0.000000 0.000000 0.000000
						}
					}
				}
			}
		}
	}
	JOINT LowerBack
	{
		OFFSET 0.000000 0.000000 0.000000
		CHANNELS 3 Zrotation Yrotation Xrotation
		JOINT Spine
		{
			OFFSET -0.087000 1.940000 -0.288900
			CHANNELS 3 Zrotation Yrotation Xrotation
			JOINT Spine1
			{
				OFFSET 0.000000 1.950000 0.060000
				CHANNELS 3 Zrotation Yrotation Xrotation
				JOINT Neck
				{
					OFFSET 0.000000 0.000000 0.000000
					CHANNELS 3 Zrotation Yrotation Xrotation
					JOINT Neck1
					{
						OFFSET 0.000000 1.600000 0.340000
						CHANNELS 3 Zrotation Yrotation Xrotation
						JOINT Head
						{
							OFFSET 0.000000 1.667000 -0.240000
							CHANNELS 3 Zrotation Yrotation Xrotation
							End Site
							{
								OFFSET 0.000000 0.000000 0.000000
							}
						}
					}
				}
				JOINT LeftShoulder
				{
					OFFSET 0.000000 0.000000 0.000000
					CHANNELS 3 Zrotation Yrotation Xrotation
					JOINT LeftArm
					{
						OFFSET 2.700000 1.550000 -0.730000
						CHANNELS 3 Zrotation Yrotation Xrotation
						JOINT LeftForeArm
						{
							OFFSET 5.450000 0.000000 0.000000
							CHANNELS 3 Zrotation Yrotation Xrotation
							JOINT LeftHand
							{
								OFFSET 3.450000 0.000000 0.000000
								CHANNELS 3 Zrotation Yrotation Xrotation
								JOINT LeftHandIndex1
								{
									OFFSET 0.750000 0.000000 0.000000
									CHANNELS 3 Zrotation Yrotation Xrotation
									End Site
									{
										OFFSET 0.000000 0.000000 0.000000
									}
								}
							}
						}
					}
				}
				JOINT RightShoulder
				{
					OFFSET 0.000000 0.000000 0.000000
					CHANNELS 3 Zrotation Yrotation Xrotation
					JOINT RightArm
					{
						OFFSET -2.700000 1.550000 -0.730000
						CHANNELS 3 Zrotation Yrotation Xrotation
						JOINT RightForeArm
						{
							OFFSET -5.450000 0.000000 0.000000
							CHANNELS 3 Zrotation Yrotation Xrotation
							JOINT RightHand
							{
								OFFSET -3.450000 0.000000 0.000000
								CHANNELS 3 Zrotation Yrotation Xrotation
								JOINT RightHandIndex1
								{
									OFFSET -0.750000 0.000000 0.000000
									CHANNELS 3 Zrotation Yrotation Xrotation
									End Site
									{
										OFFSET 0.000000 0.000000 0.000000
									}
								}
							}
						}
					}
				}
			}
		}
	}
}
MOTION
Frames: 4
Frame Time: 0.016667
1.983530 17.236740 -1.376370 156.927600 -85.225644 -151.690202 -14.377290 10.994204 4.236875 -5.138268 -1.402536 -51.093890 -1.577846 4.733747 16.113850 -1.291371 3.102611 3.560638 0.944270 0.554820 0.689670 19.117931 -11.246441 3.561270 -4.979391 12.686857 -17.031011 13.712068 -9.279086 39.390724 -1.056343 -7.010803 2.101099 0.523060 0.261930 0.399600 -5.198247 3.294216 -8.238865 21.661201 13.325977 28.152336 -5.342077 19.275115 10.553833 1.722535 -10.043233 -7.402513 -17.163115 12.764258 33.782372 -12.118160 10.587660 -21.210330 -17.545438 -9.735671 4.668517 -17.522465 -5.082197 -2.041684 21.642699 -23.287855 -5.155737 -3.764581 2.791776 0.872120 0.275620 0.103460 0.416880 10.539647 26.191839 -1.019082 19.494397 45.380163 6.014326 -6.746275 31.490819 -0.881742 1.615863 -1.373867 -0.357840 0.349930 -0.281170 -0.383720 
1.917790 17.089390 -1.359240 137.744666 -87.892614 -131.217144 -13.947649 11.395054 4.693281 -6.934361 -2.412050 -52.722615 -3.280019 3.927475 10.266166 -1.389142 2.701410 3.757016 0.938610 0.563570 0.659150 19.532624 -11.302731 2.936083 -1.335368 6.424553 -11.899676 6.671681 -6.570646 31.053547 -0.705211 -5.508112 2.659967 0.564310 0.360200 0.452620 -4.696008 4.300639 -7.966628 20.259420 15.529251 21.904714 -2.699038 19.647447 11.805338 2.257100 -7.010673 -6.281104 -10.647797 11.018976 33.803095 -13.127630 11.569880 -18.451070 -18.250875 -8.496674 3.435540 -22.792013 -7.155808 -3.739620 34.393392 -32.580644 -10.653910 -3.887066 2.825180 0.774960 0.413670 0.032580 0.452740 10.787638 22.406743 -0.314180 23.831477 47.416839 11.184297 -9.140064 20.294396 -1.995901 1.761811 -1.395503 -0.368630 0.329460 -0.278370 -0.375080 
1.899800 17.013710 -1.369640 62.341000 -85.140658 -56.429382 -15.776905 12.282326 5.056074 -10.487500 -4.057194 -54.281926 -2.707880 3.947442 12.639485 -1.410619 2.653939 3.744033 0.980450 0.589420 0.671140 17.686031 -10.765562 2.668642 -0.025101 1.864491 -5.792409 3.939423 -5.625568 21.644154 -0.573578 -4.597660 3.004724 0.578400 0.324360 0.462630 -5.972876 4.490446 -7.824861 18.599653 15.248273 20.673469 -3.560515 19.183677 11.814017 3.123287 -5.119533 -6.188471 -7.202752 9.364027 33.896136 -11.760400 10.484280 -18.024170 -20.537294 -9.288838 3.177080 -24.124641 -7.375988 -5.478626 47.505600 -40.747126 -18.419603 -3.813192 2.817903 0.768400 0.388570 0.021020 0.453990 11.582640 21.839841 0.189035 24.581041 46.965095 11.517775 -9.527995 14.842135 -2.267286 1.899779 -1.470455 -0.342920 0.266860 -0.296110 -0.379800 
1.904430 16.995730 -1.371530 34.790803 -80.551175 -29.879284 -16.085177 11.382911 5.278633 -13.859553 -6.257509 -55.949906 1.711695 3.877163 21.567491 -1.247322 3.185460 3.514454 0.957030 0.588290 0.617150 17.418781 -11.297292 2.798965 1.157274 -0.213823 -2.368021 2.865866 -5.533951 16.388284 -0.593072 -4.603700 3.040544 0.548440 0.353040 0.517330 -6.341392 3.869311 -7.845497 18.061151 13.230892 21.103822 -5.290691 17.364412 10.813923 4.264254 -3.700050 -5.742324 -4.360702 9.122008 33.302702 -11.883430 11.007740 -17.043680 -24.254216 -9.568082 3.037613 -24.494575 -7.230661 -6.635831 62.205880 -47.416551 -28.709968 -3.873850 2.708192 0.700100 0.433560 0.012770 0.463710 13.366412 20.558452 -0.003302 25.428072 45.340925 10.557495 -8.432761 16.480420 -2.084873 1.852767 -1.509846 -0.282130 0.216680 -0.277190 -0.342550 
